<svg width="1024" height="1024" viewBox="0 0 1024 1024" xmlns="http://www.w3.org/2000/svg">
  <defs>
    <linearGradient id="bg7" x1="0%" y1="0%" x2="100%" y2="100%">
      <stop offset="0%" style="stop-color:#2D3748"/>
      <stop offset="100%" style="stop-color:#1A202C"/>
    </linearGradient>
  </defs>
  <!-- 背景 -->
  <rect width="1024" height="1024" rx="220" fill="url(#bg7)"/>

  <!-- メインウィンドウフレーム -->
  <rect x="80" y="120" width="864" height="784" rx="24" fill="#171923" stroke="#2D3748" stroke-width="4"/>

  <!-- ウィンドウヘッダー -->
  <rect x="80" y="120" width="864" height="56" rx="24" fill="#2D3748"/>
  <rect x="80" y="150" width="864" height="26" fill="#2D3748"/>
  <circle cx="130" cy="148" r="14" fill="#FC8181"/>
  <circle cx="170" cy="148" r="14" fill="#F6E05E"/>
  <circle cx="210" cy="148" r="14" fill="#68D391"/>
  <text x="512" y="156" font-family="system-ui" font-size="22" fill="#A0AEC0" text-anchor="middle">Window Board</text>

  <!-- サイドバー（Finder風） -->
  <rect x="80" y="176" width="180" height="728" fill="#1A202C"/>
  <rect x="100" y="210" width="140" height="36" rx="8" fill="#3182CE" opacity="0.3"/>
  <!-- Finderアイコン -->
  <rect x="110" y="218" width="24" height="20" rx="4" fill="#63B3ED"/>
  <rect x="110" y="214" width="16" height="8" rx="2" fill="#63B3ED"/>
  <text x="145" y="236" font-family="system-ui" font-size="16" fill="#E2E8F0">Finder</text>
  <!-- Terminalアイコン -->
  <rect x="110" y="268" width="24" height="20" rx="4" fill="#1A202C" stroke="#A0AEC0" stroke-width="2"/>
  <text x="115" y="283" font-family="SF Mono, monospace" font-size="12" fill="#68D391">></text>
  <text x="145" y="284" font-family="system-ui" font-size="16" fill="#A0AEC0">Terminal</text>

  <!-- カンバンエリア -->
  <!-- 列1: To Do -->
  <rect x="280" y="200" width="200" height="680" rx="16" fill="#2D3748" opacity="0.5"/>
  <text x="380" y="240" font-family="system-ui" font-size="20" font-weight="bold" fill="#E2E8F0" text-anchor="middle">To Do</text>

  <!-- Terminal風カード -->
  <rect x="296" y="270" width="168" height="100" rx="10" fill="#0D1117" stroke="#30363D" stroke-width="2"/>
  <text x="310" y="300" font-family="SF Mono, monospace" font-size="14" fill="#7EE787">$ npm test</text>
  <text x="310" y="325" font-family="SF Mono, monospace" font-size="12" fill="#8B949E">pending...</text>
  <rect x="310" y="340" width="8" height="16" fill="#7EE787"/>

  <!-- Finder風カード -->
  <rect x="296" y="385" width="168" height="90" rx="10" fill="#2C2C2E" stroke="#3A3A3C" stroke-width="2"/>
  <rect x="312" y="400" width="32" height="26" rx="4" fill="#54AEFF"/>
  <rect x="312" y="395" width="20" height="10" rx="2" fill="#54AEFF"/>
  <text x="312" y="450" font-family="system-ui" font-size="14" fill="#FFFFFF">Review docs</text>

  <!-- 列2: In Progress -->
  <rect x="500" y="200" width="200" height="680" rx="16" fill="#2D3748" opacity="0.5"/>
  <text x="600" y="240" font-family="system-ui" font-size="20" font-weight="bold" fill="#F6E05E" text-anchor="middle">In Progress</text>

  <!-- アクティブTerminalカード -->
  <rect x="516" y="270" width="168" height="120" rx="10" fill="#0D1117" stroke="#F6E05E" stroke-width="3"/>
  <text x="530" y="300" font-family="SF Mono, monospace" font-size="14" fill="#58A6FF">$ electron .</text>
  <text x="530" y="325" font-family="SF Mono, monospace" font-size="12" fill="#7EE787">Running dev</text>
  <text x="530" y="350" font-family="SF Mono, monospace" font-size="12" fill="#8B949E">localhost:5173</text>
  <circle cx="660" cy="290" r="8" fill="#7EE787"/>

  <!-- Finder編集中カード -->
  <rect x="516" y="405" width="168" height="95" rx="10" fill="#2C2C2E" stroke="#F6E05E" stroke-width="3"/>
  <rect x="532" y="420" width="32" height="26" rx="4" fill="#30D158"/>
  <rect x="532" y="415" width="20" height="10" rx="2" fill="#30D158"/>
  <text x="532" y="475" font-family="system-ui" font-size="14" fill="#FFFFFF">Edit main.cjs</text>
  <circle cx="660" cy="430" r="8" fill="#F6E05E"/>

  <!-- 列3: Done -->
  <rect x="720" y="200" width="200" height="680" rx="16" fill="#2D3748" opacity="0.5"/>
  <text x="820" y="240" font-family="system-ui" font-size="20" font-weight="bold" fill="#68D391" text-anchor="middle">Done</text>

  <!-- 完了Terminalカード -->
  <rect x="736" y="270" width="168" height="90" rx="10" fill="#0D1117" stroke="#68D391" stroke-width="2"/>
  <text x="750" y="300" font-family="SF Mono, monospace" font-size="14" fill="#68D391">✓ git push</text>
  <text x="750" y="325" font-family="SF Mono, monospace" font-size="12" fill="#8B949E">main → origin</text>

  <!-- 完了Finderカード -->
  <rect x="736" y="375" width="168" height="85" rx="10" fill="#2C2C2E" stroke="#68D391" stroke-width="2"/>
  <rect x="752" y="390" width="32" height="26" rx="4" fill="#54AEFF"/>
  <rect x="752" y="385" width="20" height="10" rx="2" fill="#54AEFF"/>
  <text x="752" y="440" font-family="system-ui" font-size="14" fill="#68D391">✓ Organized</text>
</svg>