<svg width="1024" height="1024" viewBox="0 0 1024 1024" xmlns="http://www.w3.org/2000/svg">
  <defs>
    <linearGradient id="bg5" x1="0%" y1="0%" x2="100%" y2="100%">
      <stop offset="0%" style="stop-color:#F97316"/>
      <stop offset="50%" style="stop-color:#EA580C"/>
      <stop offset="100%" style="stop-color:#C2410C"/>
    </linearGradient>
  </defs>
  <!-- 背景 -->
  <rect width="1024" height="1024" rx="220" fill="url(#bg5)"/>
  <!-- 抽象的なカード配置 -->
  <g transform="translate(512, 512)">
    <!-- 中央のメインカード -->
    <rect x="-140" y="-180" width="280" height="360" rx="28" fill="rgba(255,255,255,0.95)" transform="rotate(-5)"/>
    <!-- 左のカード -->
    <rect x="-380" y="-120" width="220" height="300" rx="24" fill="rgba(255,255,255,0.85)" transform="rotate(8)"/>
    <!-- 右のカード -->
    <rect x="160" y="-140" width="240" height="280" rx="24" fill="rgba(255,255,255,0.9)" transform="rotate(-8)"/>
    <!-- 装飾ライン（メインカード） -->
    <rect x="-100" y="-120" width="160" height="16" rx="8" fill="#FB923C" transform="rotate(-5)"/>
    <rect x="-100" y="-80" width="120" height="12" rx="6" fill="#FDBA74" transform="rotate(-5)"/>
    <rect x="-100" y="-40" width="180" height="12" rx="6" fill="#FED7AA" transform="rotate(-5)"/>
    <rect x="-100" y="20" width="140" height="16" rx="8" fill="#FB923C" transform="rotate(-5)"/>
    <rect x="-100" y="60" width="100" height="12" rx="6" fill="#FDBA74" transform="rotate(-5)"/>
    <!-- チェックマーク -->
    <circle cx="80" cy="100" r="40" fill="#22C55E" transform="rotate(-5)"/>
    <path d="M60 100 L75 115 L100 85" stroke="white" stroke-width="10" stroke-linecap="round" stroke-linejoin="round" fill="none" transform="rotate(-5)"/>
  </g>
</svg>