<svg width="1024" height="1024" viewBox="0 0 1024 1024" xmlns="http://www.w3.org/2000/svg">
  <defs>
    <linearGradient id="bg11" x1="0%" y1="0%" x2="100%" y2="100%">
      <stop offset="0%" style="stop-color:#1a1a2e"/>
      <stop offset="100%" style="stop-color:#16213e"/>
    </linearGradient>
  </defs>
  <!-- 背景 -->
  <rect width="1024" height="1024" rx="200" fill="url(#bg11)"/>

  <!-- シンプルな3列 -->
  <rect x="120" y="200" width="250" height="624" rx="18" fill="rgba(255, 255, 255, 0.06)"/>
  <rect x="390" y="200" width="250" height="624" rx="18" fill="rgba(255, 255, 255, 0.06)"/>
  <rect x="660" y="200" width="250" height="624" rx="18" fill="rgba(255, 255, 255, 0.06)"/>

  <!-- 列ヘッダー -->
  <circle cx="180" cy="250" r="12" fill="rgba(255,255,255,0.2)"/>
  <circle cx="450" cy="250" r="12" fill="rgba(251, 191, 36, 0.4)"/>
  <circle cx="720" cy="250" r="12" fill="rgba(34, 197, 94, 0.4)"/>

  <!-- Terminal カード（緑アクセント） -->
  <g>
    <!-- カード1 -->
    <rect x="140" y="290" width="210" height="100" rx="12" fill="rgba(255, 255, 255, 0.1)"/>
    <rect x="156" y="306" width="8" height="40" rx="4" fill="#22c55e"/>
    <rect x="176" y="310" width="120" height="14" rx="4" fill="rgba(255,255,255,0.2)"/>
    <rect x="176" y="332" width="80" height="10" rx="3" fill="rgba(255,255,255,0.1)"/>
    <text x="156" y="375" font-family="SF Mono, monospace" font-size="12" fill="#22c55e">Terminal</text>

    <!-- カード2 -->
    <rect x="140" y="410" width="210" height="90" rx="12" fill="rgba(255, 255, 255, 0.1)"/>
    <rect x="156" y="426" width="8" height="40" rx="4" fill="#22c55e"/>
    <rect x="176" y="430" width="140" height="14" rx="4" fill="rgba(255,255,255,0.2)"/>
    <rect x="176" y="452" width="100" height="10" rx="3" fill="rgba(255,255,255,0.1)"/>
    <text x="156" y="485" font-family="SF Mono, monospace" font-size="12" fill="#22c55e">Terminal</text>
  </g>

  <!-- Finder カード（青アクセント） -->
  <g>
    <rect x="140" y="520" width="210" height="90" rx="12" fill="rgba(255, 255, 255, 0.1)"/>
    <rect x="156" y="536" width="8" height="40" rx="4" fill="#3b82f6"/>
    <rect x="176" y="540" width="100" height="14" rx="4" fill="rgba(255,255,255,0.2)"/>
    <rect x="176" y="562" width="60" height="10" rx="3" fill="rgba(255,255,255,0.1)"/>
    <text x="156" y="595" font-family="system-ui" font-size="12" fill="#3b82f6">Finder</text>
  </g>

  <!-- 実行中カード（ハイライト） -->
  <g>
    <rect x="410" y="290" width="210" height="120" rx="12" fill="rgba(255, 255, 255, 0.12)" stroke="#6366f1" stroke-width="2"/>
    <rect x="426" y="306" width="8" height="50" rx="4" fill="#22c55e"/>
    <rect x="446" y="310" width="150" height="14" rx="4" fill="rgba(255,255,255,0.25)"/>
    <rect x="446" y="332" width="110" height="10" rx="3" fill="rgba(255,255,255,0.12)"/>
    <!-- ジャンプボタン風 -->
    <rect x="426" y="360" width="174" height="30" rx="8" fill="rgba(34, 197, 94, 0.2)" stroke="rgba(34, 197, 94, 0.4)" stroke-width="1"/>
    <text x="513" y="381" font-family="system-ui" font-size="14" fill="#22c55e" text-anchor="middle">▶ Jump</text>
  </g>

  <g>
    <rect x="410" y="430" width="210" height="100" rx="12" fill="rgba(255, 255, 255, 0.1)"/>
    <rect x="426" y="446" width="8" height="40" rx="4" fill="#3b82f6"/>
    <rect x="446" y="450" width="130" height="14" rx="4" fill="rgba(255,255,255,0.2)"/>
    <rect x="446" y="472" width="90" height="10" rx="3" fill="rgba(255,255,255,0.1)"/>
    <text x="426" y="515" font-family="system-ui" font-size="12" fill="#3b82f6">Finder</text>
  </g>

  <!-- 完了カード -->
  <g>
    <rect x="680" y="290" width="210" height="85" rx="12" fill="rgba(255, 255, 255, 0.08)" stroke="rgba(34, 197, 94, 0.3)" stroke-width="1"/>
    <rect x="696" y="306" width="8" height="35" rx="4" fill="#22c55e" opacity="0.6"/>
    <rect x="716" y="310" width="100" height="14" rx="4" fill="rgba(255,255,255,0.15)"/>
    <rect x="716" y="332" width="70" height="10" rx="3" fill="rgba(255,255,255,0.08)"/>
    <circle cx="860" cy="332" r="14" fill="rgba(34, 197, 94, 0.3)"/>
    <text x="860" y="338" font-family="system-ui" font-size="16" fill="#22c55e" text-anchor="middle">✓</text>
  </g>

  <g>
    <rect x="680" y="395" width="210" height="85" rx="12" fill="rgba(255, 255, 255, 0.08)" stroke="rgba(59, 130, 246, 0.3)" stroke-width="1"/>
    <rect x="696" y="411" width="8" height="35" rx="4" fill="#3b82f6" opacity="0.6"/>
    <rect x="716" y="415" width="120" height="14" rx="4" fill="rgba(255,255,255,0.15)"/>
    <rect x="716" y="437" width="80" height="10" rx="3" fill="rgba(255,255,255,0.08)"/>
    <circle cx="860" cy="437" r="14" fill="rgba(59, 130, 246, 0.3)"/>
    <text x="860" y="443" font-family="system-ui" font-size="16" fill="#3b82f6" text-anchor="middle">✓</text>
  </g>

  <!-- 下部にミニウィンドウアイコン -->
  <!-- Terminal -->
  <g transform="translate(280, 750)">
    <rect width="140" height="90" rx="12" fill="#0d1117" stroke="#22c55e" stroke-width="3"/>
    <rect width="140" height="24" rx="12" fill="#21262d"/>
    <rect y="18" width="140" height="6" fill="#21262d"/>
    <circle cx="16" cy="12" r="5" fill="#ff5f56"/>
    <circle cx="32" cy="12" r="5" fill="#ffbd2e"/>
    <circle cx="48" cy="12" r="5" fill="#27ca40"/>
    <text x="14" y="50" font-family="SF Mono, monospace" font-size="11" fill="#7ee787">$ _</text>
  </g>

  <!-- Finder -->
  <g transform="translate(600, 750)">
    <rect width="140" height="90" rx="12" fill="#ffffff" stroke="#3b82f6" stroke-width="3"/>
    <rect width="140" height="24" rx="12" fill="#e8e8ed"/>
    <rect y="18" width="140" height="6" fill="#e8e8ed"/>
    <circle cx="16" cy="12" r="5" fill="#ff5f56"/>
    <circle cx="32" cy="12" r="5" fill="#ffbd2e"/>
    <circle cx="48" cy="12" r="5" fill="#27ca40"/>
    <rect x="18" y="38" width="32" height="26" rx="4" fill="#54aeff"/>
    <rect x="18" y="34" width="20" height="8" rx="2" fill="#54aeff"/>
    <rect x="60" y="38" width="32" height="26" rx="4" fill="#30d158"/>
    <rect x="60" y="34" width="20" height="8" rx="2" fill="#30d158"/>
    <rect x="102" y="38" width="32" height="26" rx="4" fill="#ff9f0a"/>
    <rect x="102" y="34" width="20" height="8" rx="2" fill="#ff9f0a"/>
  </g>

  <!-- 中央の結合シンボル -->
  <circle cx="512" cy="795" r="30" fill="rgba(99, 102, 241, 0.2)" stroke="#6366f1" stroke-width="3"/>
  <text x="512" y="803" font-family="system-ui" font-size="28" fill="#a78bfa" text-anchor="middle">⇄</text>
</svg>