<svg width="1024" height="1024" viewBox="0 0 1024 1024" xmlns="http://www.w3.org/2000/svg">
  <defs>
    <linearGradient id="bg4" x1="0%" y1="0%" x2="100%" y2="100%">
      <stop offset="0%" style="stop-color:#1E293B"/>
      <stop offset="100%" style="stop-color:#0F172A"/>
    </linearGradient>
  </defs>
  <!-- 背景（ダーク） -->
  <rect width="1024" height="1024" rx="220" fill="url(#bg4)"/>
  <!-- ターミナル風ウィンドウ -->
  <rect x="120" y="160" width="784" height="704" rx="32" fill="#1E293B" stroke="#334155" stroke-width="4"/>
  <rect x="120" y="160" width="784" height="70" rx="32" fill="#334155"/>
  <rect x="120" y="200" width="784" height="30" fill="#334155"/>
  <!-- ウィンドウボタン -->
  <circle cx="180" cy="195" r="18" fill="#EF4444"/>
  <circle cx="235" cy="195" r="18" fill="#F59E0B"/>
  <circle cx="290" cy="195" r="18" fill="#22C55E"/>
  <!-- カンバンカード（ネオン風） -->
  <rect x="160" y="280" width="200" height="120" rx="16" fill="#3B82F6" opacity="0.9"/>
  <rect x="160" y="420" width="200" height="90" rx="16" fill="#60A5FA" opacity="0.8"/>
  <rect x="160" y="530" width="200" height="140" rx="16" fill="#93C5FD" opacity="0.7"/>
  <rect x="400" y="280" width="200" height="160" rx="16" fill="#10B981" opacity="0.9"/>
  <rect x="400" y="460" width="200" height="100" rx="16" fill="#34D399" opacity="0.8"/>
  <rect x="640" y="280" width="200" height="100" rx="16" fill="#F472B6" opacity="0.9"/>
  <rect x="640" y="400" width="200" height="130" rx="16" fill="#F9A8D4" opacity="0.8"/>
  <rect x="640" y="550" width="200" height="80" rx="16" fill="#FBCFE8" opacity="0.7"/>
  <!-- コードライン -->
  <rect x="180" y="700" width="120" height="8" rx="4" fill="#22D3EE"/>
  <rect x="320" y="700" width="80" height="8" rx="4" fill="#A78BFA"/>
  <rect x="420" y="700" width="160" height="8" rx="4" fill="#4ADE80"/>
  <rect x="180" y="720" width="200" height="8" rx="4" fill="#FB923C"/>
  <rect x="400" y="720" width="100" height="8" rx="4" fill="#F472B6"/>
</svg>