<svg width="1024" height="1024" viewBox="0 0 1024 1024" xmlns="http://www.w3.org/2000/svg">
  <defs>
    <linearGradient id="bg6" x1="0%" y1="0%" x2="100%" y2="100%">
      <stop offset="0%" style="stop-color:#1a1a2e"/>
      <stop offset="100%" style="stop-color:#16213e"/>
    </linearGradient>
  </defs>
  <!-- 背景（ターミナル風ダーク） -->
  <rect width="1024" height="1024" rx="220" fill="url(#bg6)"/>

  <!-- カンバン列1: Terminal -->
  <rect x="100" y="140" width="270" height="744" rx="24" fill="#0d1117" stroke="#30363d" stroke-width="3"/>
  <text x="235" y="200" font-family="SF Mono, Monaco, monospace" font-size="32" fill="#8b949e" text-anchor="middle">Terminal</text>
  <!-- Terminalカード1 -->
  <rect x="120" y="240" width="230" height="140" rx="12" fill="#161b22" stroke="#30363d" stroke-width="2"/>
  <text x="140" y="280" font-family="SF Mono, monospace" font-size="22" fill="#7ee787">$ cd ~/projects</text>
  <text x="140" y="310" font-family="SF Mono, monospace" font-size="22" fill="#7ee787">$ npm start</text>
  <rect x="140" y="330" width="12" height="24" fill="#7ee787" opacity="0.8"/>
  <!-- Terminalカード2 -->
  <rect x="120" y="400" width="230" height="120" rx="12" fill="#161b22" stroke="#30363d" stroke-width="2"/>
  <text x="140" y="445" font-family="SF Mono, monospace" font-size="22" fill="#58a6ff">$ git status</text>
  <text x="140" y="480" font-family="SF Mono, monospace" font-size="18" fill="#8b949e">modified: 3 files</text>
  <!-- Terminalカード3 -->
  <rect x="120" y="540" width="230" height="100" rx="12" fill="#161b22" stroke="#238636" stroke-width="2"/>
  <text x="140" y="580" font-family="SF Mono, monospace" font-size="22" fill="#3fb950">✓ Build success</text>
  <text x="140" y="610" font-family="SF Mono, monospace" font-size="18" fill="#8b949e">exit code: 0</text>

  <!-- カンバン列2: In Progress -->
  <rect x="390" y="140" width="270" height="744" rx="24" fill="rgba(255,255,255,0.05)" stroke="#30363d" stroke-width="3"/>
  <text x="525" y="200" font-family="system-ui" font-size="32" fill="#c9d1d9" text-anchor="middle">Progress</text>
  <!-- 混合カード -->
  <rect x="410" y="240" width="230" height="160" rx="12" fill="#21262d" stroke="#f78166" stroke-width="2"/>
  <rect x="430" y="260" width="40" height="36" rx="6" fill="#1f6feb"/>
  <path d="M440 270 L460 278 L440 286 Z" fill="white"/>
  <text x="480" y="285" font-family="system-ui" font-size="20" fill="#c9d1d9">main.cjs</text>
  <text x="430" y="330" font-family="SF Mono, monospace" font-size="16" fill="#f78166">⚡ Hot reload</text>
  <text x="430" y="360" font-family="SF Mono, monospace" font-size="14" fill="#7ee787">watching...</text>
  <!-- Finderカード -->
  <rect x="410" y="420" width="230" height="140" rx="12" fill="#21262d" stroke="#58a6ff" stroke-width="2"/>
  <rect x="430" y="445" width="44" height="36" rx="4" fill="#54aeff"/>
  <rect x="430" y="440" width="28" height="10" rx="2" fill="#54aeff"/>
  <text x="485" y="470" font-family="system-ui" font-size="20" fill="#c9d1d9">src/</text>
  <rect x="450" y="495" width="36" height="28" rx="3" fill="#7ee787" opacity="0.8"/>
  <text x="495" y="515" font-family="system-ui" font-size="16" fill="#8b949e">App.tsx</text>
  <rect x="450" y="530" width="36" height="28" rx="3" fill="#7ee787" opacity="0.8"/>
  <text x="495" y="550" font-family="system-ui" font-size="16" fill="#8b949e">index.ts</text>

  <!-- カンバン列3: Finder -->
  <rect x="680" y="140" width="270" height="744" rx="24" fill="#1c1c1e" stroke="#3a3a3c" stroke-width="3"/>
  <text x="815" y="200" font-family="system-ui" font-size="32" fill="#ffffff" text-anchor="middle">Finder</text>
  <!-- Finderカード1: フォルダ -->
  <rect x="700" y="240" width="230" height="130" rx="12" fill="#2c2c2e" stroke="#3a3a3c" stroke-width="2"/>
  <rect x="720" y="265" width="56" height="44" rx="6" fill="#54aeff"/>
  <rect x="720" y="258" width="36" height="14" rx="3" fill="#54aeff"/>
  <text x="790" y="295" font-family="system-ui" font-size="22" fill="#ffffff">Documents</text>
  <text x="720" y="340" font-family="system-ui" font-size="16" fill="#8e8e93">12 items</text>
  <!-- Finderカード2 -->
  <rect x="700" y="390" width="230" height="130" rx="12" fill="#2c2c2e" stroke="#3a3a3c" stroke-width="2"/>
  <rect x="720" y="415" width="56" height="44" rx="6" fill="#30d158"/>
  <rect x="720" y="408" width="36" height="14" rx="3" fill="#30d158"/>
  <text x="790" y="445" font-family="system-ui" font-size="22" fill="#ffffff">Projects</text>
  <text x="720" y="490" font-family="system-ui" font-size="16" fill="#8e8e93">8 items</text>
  <!-- Finderカード3 -->
  <rect x="700" y="540" width="230" height="100" rx="12" fill="#2c2c2e" stroke="#ff9f0a" stroke-width="2"/>
  <rect x="720" y="560" width="56" height="44" rx="6" fill="#ff9f0a"/>
  <rect x="720" y="553" width="36" height="14" rx="3" fill="#ff9f0a"/>
  <text x="790" y="590" font-family="system-ui" font-size="22" fill="#ffffff">Downloads</text>
  <text x="720" y="620" font-family="system-ui" font-size="16" fill="#8e8e93">3 new</text>
</svg>