<svg width="1024" height="1024" viewBox="0 0 1024 1024" xmlns="http://www.w3.org/2000/svg">
  <defs>
    <linearGradient id="bg14" x1="0%" y1="0%" x2="100%" y2="100%">
      <stop offset="0%" style="stop-color:#2d3748"/>
      <stop offset="100%" style="stop-color:#1a202c"/>
    </linearGradient>
  </defs>
  <!-- 背景（明るい縁取り付き） -->
  <rect x="8" y="8" width="1008" height="1008" rx="200" fill="url(#bg14)" stroke="rgba(255,255,255,0.3)" stroke-width="8"/>

  <!-- Terminal ウィンドウ（大きめ・左上） -->
  <g transform="translate(60, 80)">
    <rect width="440" height="400" rx="24" fill="#0d1117" stroke="#22c55e" stroke-width="6"/>
    <rect width="440" height="50" rx="24" fill="#21262d"/>
    <rect y="36" width="440" height="14" fill="#21262d"/>
    <circle cx="36" cy="25" r="14" fill="#ff5f56"/>
    <circle cx="72" cy="25" r="14" fill="#ffbd2e"/>
    <circle cx="108" cy="25" r="14" fill="#27ca40"/>
    <!-- Terminal content -->
    <text x="30" y="100" font-family="SF Mono, monospace" font-size="28" fill="#7ee787">$ npm run dev</text>
    <text x="30" y="150" font-family="SF Mono, monospace" font-size="24" fill="#3fb950">✓ Ready :5173</text>
    <text x="30" y="200" font-family="SF Mono, monospace" font-size="28" fill="#7ee787">$ git push</text>
    <text x="30" y="250" font-family="SF Mono, monospace" font-size="24" fill="#58a6ff">→ main</text>
    <rect x="30" y="280" width="16" height="30" fill="#7ee787"/>
  </g>

  <!-- Finder ウィンドウ（大きめ・右上） -->
  <g transform="translate(524, 80)">
    <rect width="440" height="400" rx="24" fill="#f5f5f7" stroke="#3b82f6" stroke-width="6"/>
    <rect width="440" height="50" rx="24" fill="#e8e8ed"/>
    <rect y="36" width="440" height="14" fill="#e8e8ed"/>
    <circle cx="36" cy="25" r="14" fill="#ff5f56"/>
    <circle cx="72" cy="25" r="14" fill="#ffbd2e"/>
    <circle cx="108" cy="25" r="14" fill="#27ca40"/>
    <!-- Finder content - 大きめフォルダ -->
    <rect x="40" y="80" width="100" height="80" rx="10" fill="#54aeff"/>
    <rect x="40" y="70" width="65" height="18" rx="6" fill="#54aeff"/>
    <rect x="170" y="80" width="100" height="80" rx="10" fill="#30d158"/>
    <rect x="170" y="70" width="65" height="18" rx="6" fill="#30d158"/>
    <rect x="300" y="80" width="100" height="80" rx="10" fill="#ff9f0a"/>
    <rect x="300" y="70" width="65" height="18" rx="6" fill="#ff9f0a"/>
    <rect x="40" y="200" width="100" height="80" rx="10" fill="#af52de"/>
    <rect x="40" y="190" width="65" height="18" rx="6" fill="#af52de"/>
    <rect x="170" y="200" width="100" height="80" rx="10" fill="#ff375f"/>
    <rect x="170" y="190" width="65" height="18" rx="6" fill="#ff375f"/>
  </g>

  <!-- 下部: シンプルなカンバン3列 -->
  <g transform="translate(60, 520)">
    <!-- 列の背景 -->
    <rect x="0" y="0" width="280" height="420" rx="20" fill="rgba(255, 255, 255, 0.08)" stroke="rgba(255,255,255,0.15)" stroke-width="2"/>
    <rect x="310" y="0" width="280" height="420" rx="20" fill="rgba(255, 255, 255, 0.08)" stroke="rgba(255,255,255,0.15)" stroke-width="2"/>
    <rect x="620" y="0" width="280" height="420" rx="20" fill="rgba(255, 255, 255, 0.08)" stroke="rgba(255,255,255,0.15)" stroke-width="2"/>

    <!-- カード（シンプル化） -->
    <!-- 列1 -->
    <rect x="20" y="60" width="240" height="80" rx="12" fill="rgba(34, 197, 94, 0.25)" stroke="#22c55e" stroke-width="2"/>
    <rect x="20" y="160" width="240" height="80" rx="12" fill="rgba(59, 130, 246, 0.25)" stroke="#3b82f6" stroke-width="2"/>

    <!-- 列2 -->
    <rect x="330" y="60" width="240" height="100" rx="12" fill="rgba(34, 197, 94, 0.3)" stroke="#22c55e" stroke-width="3"/>

    <!-- 列3 -->
    <rect x="640" y="60" width="240" height="70" rx="12" fill="rgba(34, 197, 94, 0.2)" stroke="#22c55e" stroke-width="2"/>
    <circle cx="850" cy="95" r="20" fill="#22c55e"/>
    <text x="850" y="103" font-family="system-ui" font-size="24" fill="white" text-anchor="middle">✓</text>
    <rect x="640" y="150" width="240" height="70" rx="12" fill="rgba(59, 130, 246, 0.2)" stroke="#3b82f6" stroke-width="2"/>
    <circle cx="850" cy="185" r="20" fill="#3b82f6"/>
    <text x="850" y="193" font-family="system-ui" font-size="24" fill="white" text-anchor="middle">✓</text>
  </g>
</svg>